<?xml version="1.0" standalone="no"?>
<!DOCTYPE svg PUBLIC "-//W3C//DTD SVG 20010904//EN"
 "http://www.w3.org/TR/2001/REC-SVG-20010904/DTD/svg10.dtd">
<svg version="1.0" xmlns="http://www.w3.org/2000/svg"
 width="450.000000pt" height="450.000000pt" viewBox="0 0 450.000000 450.000000"
 preserveAspectRatio="xMidYMid meet">
<metadata>
Created by potrace 1.10, written by Peter Selinger 2001-2011
</metadata>
<g transform="translate(0.000000,450.000000) scale(0.100000,-0.100000)"
fill="#237ccd" stroke="none">
<path d="M2158 3195 c-72 -23 -165 -100 -208 -172 -60 -100 -75 -160 -75 -298
0 -127 13 -186 60 -272 l24 -43 -27 -6 c-187 -42 -256 -98 -297 -238 l-16 -56
-475 0 -475 0 80 -117 80 -117 -80 -115 -80 -116 326 -3 c193 -1 325 -6 325
-12 0 -5 -27 -68 -60 -140 -61 -133 -69 -167 -48 -188 21 -21 43 -13 88 34 54
55 169 115 277 146 118 33 280 31 390 -5 94 -31 170 -79 229 -143 23 -24 46
-44 52 -44 17 0 142 126 142 143 0 9 -7 23 -16 32 -15 15 -27 14 -71 -2 -10
-4 -13 17 -13 86 l0 91 394 0 393 0 31 -70 c17 -38 27 -70 23 -70 -5 0 -33 11
-63 25 -99 45 -203 66 -328 67 -190 2 -270 -26 -239 -83 10 -20 15 -21 82 -13
120 15 254 9 340 -15 106 -29 210 -83 272 -142 53 -50 72 -58 93 -37 21 21 13
51 -52 196 l-65 142 330 2 330 3 -80 116 -80 116 80 116 80 117 -475 0 -475 0
-12 42 c-40 150 -111 209 -301 252 l-27 6 25 44 c33 60 64 186 64 266 0 205
-95 382 -245 455 -68 34 -159 41 -227 20z m187 -99 c117 -54 195 -200 195
-366 0 -127 -35 -230 -104 -303 -37 -38 -45 -67 -23 -85 6 -5 48 -13 91 -17
99 -9 157 -26 200 -59 34 -26 76 -101 76 -136 0 -20 -6 -20 -528 -20 -291 0
-531 3 -534 6 -13 13 27 99 63 135 44 44 104 65 219 75 112 10 127 33 64 100
-71 77 -104 175 -104 307 0 211 132 387 290 387 26 0 66 -10 95 -24z m-1175
-1091 c0 -52 -1 -55 -25 -55 -21 0 -25 5 -25 30 0 27 -3 30 -30 30 l-30 0 0
-135 0 -135 25 0 c20 0 25 -5 25 -25 0 -25 -1 -25 -80 -25 -79 0 -80 0 -80 25
0 21 5 25 29 25 l29 0 0 135 0 135 -34 0 c-31 0 -34 -2 -34 -31 0 -26 -3 -30
-22 -27 -19 2 -24 10 -26 42 -6 67 -7 66 143 66 l135 0 0 -55z m280 30 c0 -25
-1 -25 -80 -25 l-80 0 0 -55 0 -55 76 0 c72 0 75 -1 72 -22 -3 -21 -9 -23 -75
-26 l-73 -3 0 -54 0 -55 80 0 c79 0 80 0 80 -25 l0 -25 -110 0 -110 0 0 178
c0 98 3 182 7 185 3 4 53 7 110 7 l103 0 0 -25z m304 12 c13 -9 17 -23 14 -52
-3 -35 -6 -40 -28 -40 -21 0 -25 5 -24 28 0 25 -3 27 -42 27 -35 0 -47 -5 -68
-30 -64 -77 -30 -233 54 -241 50 -4 60 0 60 26 0 20 5 25 25 25 22 0 25 -4 25
-40 0 -48 -21 -63 -94 -64 -103 -1 -156 64 -156 190 0 123 53 184 160 184 31
0 64 -6 74 -13z m116 -67 l0 -80 75 0 75 0 0 80 c0 79 0 80 25 80 l25 0 0
-185 0 -185 -25 0 c-25 0 -25 1 -25 80 l0 80 -75 0 -75 0 0 -80 c0 -79 0 -80
-25 -80 l-25 0 0 185 0 185 25 0 c25 0 25 -1 25 -80z m308 -2 l3 -78 72 0 72
0 0 78 c0 75 0 77 25 77 l25 0 3 -183 2 -183 -27 3 c-31 3 -30 1 -32 93 l-1
65 -70 0 -69 0 -3 -77 c-3 -77 -3 -78 -30 -81 l-28 -3 0 179 c0 98 3 182 7
186 4 4 16 6 28 4 18 -3 20 -11 23 -80z m302 -50 c0 -165 7 -182 72 -186 71
-5 78 11 78 180 l0 138 25 0 25 0 0 -139 c0 -155 -9 -195 -51 -216 -59 -31
-164 -12 -189 34 -5 11 -10 86 -10 170 l0 151 25 0 25 0 0 -132z m451 117 c52
-27 62 -101 19 -140 -19 -17 -19 -18 5 -37 32 -25 41 -77 21 -117 -24 -45 -63
-61 -151 -61 l-75 0 0 179 c0 134 3 181 13 184 29 12 139 6 168 -8z m159 -65
l0 -80 75 0 75 0 0 80 c0 79 0 80 25 80 l25 0 0 -185 0 -185 -25 0 c-25 0 -25
1 -25 80 l0 80 -75 0 -75 0 0 -80 c0 -79 0 -80 -25 -80 l-25 0 0 185 0 185 25
0 c25 0 25 -1 25 -80z m318 -2 c2 -59 6 -78 17 -78 7 0 39 36 70 80 44 63 62
80 81 80 13 0 24 -5 24 -11 0 -5 -25 -44 -55 -84 -30 -41 -55 -78 -55 -81 0
-4 29 -46 65 -94 36 -48 65 -90 65 -94 0 -3 -13 -6 -29 -6 -25 0 -38 12 -93
85 -34 47 -69 85 -75 85 -10 0 -13 -24 -13 -85 l0 -85 -30 0 -30 0 0 178 c0
98 3 182 7 186 4 4 16 6 28 4 18 -3 20 -11 23 -80z m-1204 -354 c8 -20 8 -159
0 -167 -3 -3 -33 12 -66 33 -116 75 -216 102 -378 102 -126 0 -224 -20 -331
-68 -33 -15 -61 -25 -63 -23 -2 2 10 34 26 72 l31 67 387 0 c344 0 389 -2 394
-16z"/>
<path d="M2803 1955 c1 -55 1 -55 33 -55 60 0 107 63 72 98 -7 7 -33 12 -59
12 l-47 0 1 -55z"/>
<path d="M2805 1820 c5 -86 1 -80 48 -80 48 0 77 22 77 57 0 32 -32 53 -82 53
-44 0 -45 -1 -43 -30z"/>
</g>
</svg>
